<?xml version="1.0" encoding="us-ascii" standalone="no"?><svg xmlns="http://www.w3.org/2000/svg" xmlns:xlink="http://www.w3.org/1999/xlink" contentStyleType="text/css" height="753px" preserveAspectRatio="none" style="width:2221px;height:753px;background:#FFFFFF;" version="1.1" viewBox="0 0 2221 753" width="2221px" zoomAndPan="magnify"><defs/><g><text fill="#000000" font-family="sans-serif" font-size="14" font-weight="bold" lengthAdjust="spacing" textLength="220" x="993.75" y="22.9951">AskMyData &#8212; Domain Model</text><!--cluster Identity and Access--><g id="cluster_Identity and Access"><rect fill="none" height="257" rx="2.5" ry="2.5" style="stroke:#000000;stroke-width:1.5;" width="308" x="7" y="44.2969"/><text fill="#000000" font-family="sans-serif" font-size="14" font-weight="bold" lengthAdjust="spacing" textLength="155" x="83.5" y="59.292">Identity and Access</text></g><!--cluster Project Workspace--><g id="cluster_Project Workspace"><rect fill="none" height="272" rx="2.5" ry="2.5" style="stroke:#000000;stroke-width:1.5;" width="172" x="339" y="177.2969"/><text fill="#000000" font-family="sans-serif" font-size="14" font-weight="bold" lengthAdjust="spacing" textLength="149" x="350.5" y="192.292">Project Workspace</text></g><!--cluster Knowledge Catalog--><g id="cluster_Knowledge Catalog"><rect fill="none" height="289" rx="2.5" ry="2.5" style="stroke:#000000;stroke-width:1.5;" width="558" x="535" y="325.2969"/><text fill="#000000" font-family="sans-serif" font-size="14" font-weight="bold" lengthAdjust="spacing" textLength="153" x="737.5" y="340.292">Knowledge Catalog</text></g><!--cluster Conversation and Execution--><g id="cluster_Conversation and Execution"><rect fill="none" height="413.5" rx="2.5" ry="2.5" style="stroke:#000000;stroke-width:1.5;" width="350" x="1117" y="333.7969"/><text fill="#000000" font-family="sans-serif" font-size="14" font-weight="bold" lengthAdjust="spacing" textLength="221" x="1181.5" y="348.792">Conversation and Execution</text></g><!--class User--><g id="elem_User"><rect codeLine="13" fill="#F1F1F1" height="72.5938" id="User" rx="2.5" ry="2.5" style="stroke:#181818;stroke-width:0.5;" width="70" x="218" y="79.2969"/><ellipse cx="235.7" cy="95.2969" fill="#ADD1B2" rx="11" ry="11" style="stroke:#181818;stroke-width:1.0;"/><path d="M238.6688,100.9375 Q238.0906,101.2344 237.45,101.375 Q236.8094,101.5313 236.1063,101.5313 Q233.6063,101.5313 232.2781,99.8906 Q230.9656,98.2344 230.9656,95.1094 Q230.9656,91.9844 232.2781,90.3281 Q233.6063,88.6719 236.1063,88.6719 Q236.8094,88.6719 237.45,88.8281 Q238.1063,88.9844 238.6688,89.2813 L238.6688,92 Q238.0438,91.4219 237.45,91.1563 Q236.8563,90.875 236.2313,90.875 Q234.8875,90.875 234.2,91.9531 Q233.5125,93.0156 233.5125,95.1094 Q233.5125,97.2031 234.2,98.2813 Q234.8875,99.3438 236.2313,99.3438 Q236.8563,99.3438 237.45,99.0781 Q238.0438,98.7969 238.6688,98.2188 L238.6688,100.9375 Z " fill="#000000"/><text fill="#000000" font-family="sans-serif" font-size="14" lengthAdjust="spacing" textLength="32" x="250.3" y="100.1436">User</text><line style="stroke:#181818;stroke-width:0.5;" x1="219" x2="287" y1="111.2969" y2="111.2969"/><text fill="#000000" font-family="sans-serif" font-size="14" lengthAdjust="spacing" textLength="36" x="224" y="128.292">email</text><text fill="#000000" font-family="sans-serif" font-size="14" lengthAdjust="spacing" textLength="58" x="224" y="144.5889">is_active</text></g><!--class UserPreferences--><g id="elem_UserPreferences"><rect codeLine="18" fill="#F1F1F1" height="56.2969" id="UserPreferences" rx="2.5" ry="2.5" style="stroke:#181818;stroke-width:0.5;" width="148" x="23" y="220.7969"/><ellipse cx="38" cy="236.7969" fill="#ADD1B2" rx="11" ry="11" style="stroke:#181818;stroke-width:1.0;"/><path d="M40.9688,242.4375 Q40.3906,242.7344 39.75,242.875 Q39.1094,243.0313 38.4063,243.0313 Q35.9063,243.0313 34.5781,241.3906 Q33.2656,239.7344 33.2656,236.6094 Q33.2656,233.4844 34.5781,231.8281 Q35.9063,230.1719 38.4063,230.1719 Q39.1094,230.1719 39.75,230.3281 Q40.4063,230.4844 40.9688,230.7813 L40.9688,233.5 Q40.3438,232.9219 39.75,232.6563 Q39.1563,232.375 38.5313,232.375 Q37.1875,232.375 36.5,233.4531 Q35.8125,234.5156 35.8125,236.6094 Q35.8125,238.7031 36.5,239.7813 Q37.1875,240.8438 38.5313,240.8438 Q39.1563,240.8438 39.75,240.5781 Q40.3438,240.2969 40.9688,239.7188 L40.9688,242.4375 Z " fill="#000000"/><text fill="#000000" font-family="sans-serif" font-size="14" lengthAdjust="spacing" textLength="116" x="52" y="241.6436">UserPreferences</text><line style="stroke:#181818;stroke-width:0.5;" x1="24" x2="170" y1="252.7969" y2="252.7969"/><text fill="#000000" font-family="sans-serif" font-size="14" lengthAdjust="spacing" textLength="64" x="29" y="269.792">language</text></g><!--class Invitation--><g id="elem_Invitation"><rect codeLine="22" fill="#F1F1F1" height="72.5938" id="Invitation" rx="2.5" ry="2.5" style="stroke:#181818;stroke-width:0.5;" width="93" x="206.5" y="212.2969"/><ellipse cx="221.5" cy="228.2969" fill="#ADD1B2" rx="11" ry="11" style="stroke:#181818;stroke-width:1.0;"/><path d="M224.4688,233.9375 Q223.8906,234.2344 223.25,234.375 Q222.6094,234.5313 221.9063,234.5313 Q219.4063,234.5313 218.0781,232.8906 Q216.7656,231.2344 216.7656,228.1094 Q216.7656,224.9844 218.0781,223.3281 Q219.4063,221.6719 221.9063,221.6719 Q222.6094,221.6719 223.25,221.8281 Q223.9063,221.9844 224.4688,222.2813 L224.4688,225 Q223.8438,224.4219 223.25,224.1563 Q222.6563,223.875 222.0313,223.875 Q220.6875,223.875 220,224.9531 Q219.3125,226.0156 219.3125,228.1094 Q219.3125,230.2031 220,231.2813 Q220.6875,232.3438 222.0313,232.3438 Q222.6563,232.3438 223.25,232.0781 Q223.8438,231.7969 224.4688,231.2188 L224.4688,233.9375 Z " fill="#000000"/><text fill="#000000" font-family="sans-serif" font-size="14" lengthAdjust="spacing" textLength="61" x="235.5" y="233.1436">Invitation</text><line style="stroke:#181818;stroke-width:0.5;" x1="207.5" x2="298.5" y1="244.2969" y2="244.2969"/><text fill="#000000" font-family="sans-serif" font-size="14" lengthAdjust="spacing" textLength="43" x="212.5" y="261.292">status</text><text fill="#000000" font-family="sans-serif" font-size="14" lengthAdjust="spacing" textLength="70" x="212.5" y="277.5889">expires_at</text></g><!--class Project--><g id="elem_Project"><rect codeLine="30" fill="#F1F1F1" height="72.5938" id="Project" rx="2.5" ry="2.5" style="stroke:#181818;stroke-width:0.5;" width="80" x="415" y="212.2969"/><ellipse cx="430" cy="228.2969" fill="#ADD1B2" rx="11" ry="11" style="stroke:#181818;stroke-width:1.0;"/><path d="M432.9688,233.9375 Q432.3906,234.2344 431.75,234.375 Q431.1094,234.5313 430.4063,234.5313 Q427.9063,234.5313 426.5781,232.8906 Q425.2656,231.2344 425.2656,228.1094 Q425.2656,224.9844 426.5781,223.3281 Q427.9063,221.6719 430.4063,221.6719 Q431.1094,221.6719 431.75,221.8281 Q432.4063,221.9844 432.9688,222.2813 L432.9688,225 Q432.3438,224.4219 431.75,224.1563 Q431.1563,223.875 430.5313,223.875 Q429.1875,223.875 428.5,224.9531 Q427.8125,226.0156 427.8125,228.1094 Q427.8125,230.2031 428.5,231.2813 Q429.1875,232.3438 430.5313,232.3438 Q431.1563,232.3438 431.75,232.0781 Q432.3438,231.7969 432.9688,231.2188 L432.9688,233.9375 Z " fill="#000000"/><text fill="#000000" font-family="sans-serif" font-size="14" lengthAdjust="spacing" textLength="48" x="444" y="233.1436">Project</text><line style="stroke:#181818;stroke-width:0.5;" x1="416" x2="494" y1="244.2969" y2="244.2969"/><text fill="#000000" font-family="sans-serif" font-size="14" lengthAdjust="spacing" textLength="39" x="421" y="261.292">name</text><text fill="#000000" font-family="sans-serif" font-size="14" lengthAdjust="spacing" textLength="43" x="421" y="277.5889">status</text></g><!--class DataSource--><g id="elem_DataSource"><rect codeLine="35" fill="#F1F1F1" height="72.5938" id="DataSource" rx="2.5" ry="2.5" style="stroke:#181818;stroke-width:0.5;" width="140" x="355" y="360.2969"/><ellipse cx="382.15" cy="376.2969" fill="#ADD1B2" rx="11" ry="11" style="stroke:#181818;stroke-width:1.0;"/><path d="M385.1188,381.9375 Q384.5406,382.2344 383.9,382.375 Q383.2594,382.5313 382.5563,382.5313 Q380.0563,382.5313 378.7281,380.8906 Q377.4156,379.2344 377.4156,376.1094 Q377.4156,372.9844 378.7281,371.3281 Q380.0563,369.6719 382.5563,369.6719 Q383.2594,369.6719 383.9,369.8281 Q384.5563,369.9844 385.1188,370.2813 L385.1188,373 Q384.4938,372.4219 383.9,372.1563 Q383.3063,371.875 382.6813,371.875 Q381.3375,371.875 380.65,372.9531 Q379.9625,374.0156 379.9625,376.1094 Q379.9625,378.2031 380.65,379.2813 Q381.3375,380.3438 382.6813,380.3438 Q383.3063,380.3438 383.9,380.0781 Q384.4938,379.7969 385.1188,379.2188 L385.1188,381.9375 Z " fill="#000000"/><text fill="#000000" font-family="sans-serif" font-size="14" lengthAdjust="spacing" textLength="81" x="398.85" y="381.1436">DataSource</text><line style="stroke:#181818;stroke-width:0.5;" x1="356" x2="494" y1="392.2969" y2="392.2969"/><text fill="#000000" font-family="sans-serif" font-size="14" lengthAdjust="spacing" textLength="85" x="361" y="409.292">source_type</text><text fill="#000000" font-family="sans-serif" font-size="14" lengthAdjust="spacing" textLength="128" x="361" y="425.5889">connection_status</text></g><!--class CatalogScope--><g id="elem_CatalogScope"><rect codeLine="43" fill="#F1F1F1" height="72.5938" id="CatalogScope" rx="2.5" ry="2.5" style="stroke:#181818;stroke-width:0.5;" width="142" x="935" y="509.2969"/><ellipse cx="956.3" cy="525.2969" fill="#ADD1B2" rx="11" ry="11" style="stroke:#181818;stroke-width:1.0;"/><path d="M959.2688,530.9375 Q958.6906,531.2344 958.05,531.375 Q957.4094,531.5313 956.7063,531.5313 Q954.2063,531.5313 952.8781,529.8906 Q951.5656,528.2344 951.5656,525.1094 Q951.5656,521.9844 952.8781,520.3281 Q954.2063,518.6719 956.7063,518.6719 Q957.4094,518.6719 958.05,518.8281 Q958.7063,518.9844 959.2688,519.2813 L959.2688,522 Q958.6438,521.4219 958.05,521.1563 Q957.4563,520.875 956.8313,520.875 Q955.4875,520.875 954.8,521.9531 Q954.1125,523.0156 954.1125,525.1094 Q954.1125,527.2031 954.8,528.2813 Q955.4875,529.3438 956.8313,529.3438 Q957.4563,529.3438 958.05,529.0781 Q958.6438,528.7969 959.2688,528.2188 L959.2688,530.9375 Z " fill="#000000"/><text fill="#000000" font-family="sans-serif" font-size="14" lengthAdjust="spacing" textLength="96" x="971.7" y="530.1436">CatalogScope</text><line style="stroke:#181818;stroke-width:0.5;" x1="936" x2="1076" y1="541.2969" y2="541.2969"/><text fill="#000000" font-family="sans-serif" font-size="14" lengthAdjust="spacing" textLength="130" x="941" y="558.292">selected_schemas</text><text fill="#000000" font-family="sans-serif" font-size="14" lengthAdjust="spacing" textLength="109" x="941" y="574.5889">selected_tables</text></g><!--class KnowledgeCatalog--><g id="elem_KnowledgeCatalog"><rect codeLine="48" fill="#F1F1F1" height="72.5938" id="KnowledgeCatalog" rx="2.5" ry="2.5" style="stroke:#181818;stroke-width:0.5;" width="161" x="739.5" y="360.2969"/><ellipse cx="754.5" cy="376.2969" fill="#ADD1B2" rx="11" ry="11" style="stroke:#181818;stroke-width:1.0;"/><path d="M757.4688,381.9375 Q756.8906,382.2344 756.25,382.375 Q755.6094,382.5313 754.9063,382.5313 Q752.4063,382.5313 751.0781,380.8906 Q749.7656,379.2344 749.7656,376.1094 Q749.7656,372.9844 751.0781,371.3281 Q752.4063,369.6719 754.9063,369.6719 Q755.6094,369.6719 756.25,369.8281 Q756.9063,369.9844 757.4688,370.2813 L757.4688,373 Q756.8438,372.4219 756.25,372.1563 Q755.6563,371.875 755.0313,371.875 Q753.6875,371.875 753,372.9531 Q752.3125,374.0156 752.3125,376.1094 Q752.3125,378.2031 753,379.2813 Q753.6875,380.3438 755.0313,380.3438 Q755.6563,380.3438 756.25,380.0781 Q756.8438,379.7969 757.4688,379.2188 L757.4688,381.9375 Z " fill="#000000"/><text fill="#000000" font-family="sans-serif" font-size="14" lengthAdjust="spacing" textLength="129" x="768.5" y="381.1436">KnowledgeCatalog</text><line style="stroke:#181818;stroke-width:0.5;" x1="740.5" x2="899.5" y1="392.2969" y2="392.2969"/><text fill="#000000" font-family="sans-serif" font-size="14" lengthAdjust="spacing" textLength="50" x="745.5" y="409.292">version</text><text fill="#000000" font-family="sans-serif" font-size="14" lengthAdjust="spacing" textLength="43" x="745.5" y="425.5889">status</text></g><!--class SchemaSnapshot--><g id="elem_SchemaSnapshot"><rect codeLine="53" fill="#F1F1F1" height="72.5938" id="SchemaSnapshot" rx="2.5" ry="2.5" style="stroke:#181818;stroke-width:0.5;" width="154" x="551" y="509.2969"/><ellipse cx="566" cy="525.2969" fill="#ADD1B2" rx="11" ry="11" style="stroke:#181818;stroke-width:1.0;"/><path d="M568.9688,530.9375 Q568.3906,531.2344 567.75,531.375 Q567.1094,531.5313 566.4063,531.5313 Q563.9063,531.5313 562.5781,529.8906 Q561.2656,528.2344 561.2656,525.1094 Q561.2656,521.9844 562.5781,520.3281 Q563.9063,518.6719 566.4063,518.6719 Q567.1094,518.6719 567.75,518.8281 Q568.4063,518.9844 568.9688,519.2813 L568.9688,522 Q568.3438,521.4219 567.75,521.1563 Q567.1563,520.875 566.5313,520.875 Q565.1875,520.875 564.5,521.9531 Q563.8125,523.0156 563.8125,525.1094 Q563.8125,527.2031 564.5,528.2813 Q565.1875,529.3438 566.5313,529.3438 Q567.1563,529.3438 567.75,529.0781 Q568.3438,528.7969 568.9688,528.2188 L568.9688,530.9375 Z " fill="#000000"/><text fill="#000000" font-family="sans-serif" font-size="14" lengthAdjust="spacing" textLength="122" x="580" y="530.1436">SchemaSnapshot</text><line style="stroke:#181818;stroke-width:0.5;" x1="552" x2="704" y1="541.2969" y2="541.2969"/><text fill="#000000" font-family="sans-serif" font-size="14" lengthAdjust="spacing" textLength="50" x="557" y="558.292">version</text><text fill="#000000" font-family="sans-serif" font-size="14" lengthAdjust="spacing" textLength="82" x="557" y="574.5889">captured_at</text></g><!--class SemanticMetadata--><g id="elem_SemanticMetadata"><rect codeLine="58" fill="#F1F1F1" height="105.1875" id="SemanticMetadata" rx="2.5" ry="2.5" style="stroke:#181818;stroke-width:0.5;" width="160" x="740" y="493.2969"/><ellipse cx="755" cy="509.2969" fill="#ADD1B2" rx="11" ry="11" style="stroke:#181818;stroke-width:1.0;"/><path d="M757.9688,514.9375 Q757.3906,515.2344 756.75,515.375 Q756.1094,515.5313 755.4063,515.5313 Q752.9063,515.5313 751.5781,513.8906 Q750.2656,512.2344 750.2656,509.1094 Q750.2656,505.9844 751.5781,504.3281 Q752.9063,502.6719 755.4063,502.6719 Q756.1094,502.6719 756.75,502.8281 Q757.4063,502.9844 757.9688,503.2813 L757.9688,506 Q757.3438,505.4219 756.75,505.1563 Q756.1563,504.875 755.5313,504.875 Q754.1875,504.875 753.5,505.9531 Q752.8125,507.0156 752.8125,509.1094 Q752.8125,511.2031 753.5,512.2813 Q754.1875,513.3438 755.5313,513.3438 Q756.1563,513.3438 756.75,513.0781 Q757.3438,512.7969 757.9688,512.2188 L757.9688,514.9375 Z " fill="#000000"/><text fill="#000000" font-family="sans-serif" font-size="14" lengthAdjust="spacing" textLength="128" x="769" y="514.1436">SemanticMetadata</text><line style="stroke:#181818;stroke-width:0.5;" x1="741" x2="899" y1="525.2969" y2="525.2969"/><text fill="#000000" font-family="sans-serif" font-size="14" lengthAdjust="spacing" textLength="78" x="746" y="542.292">target_type</text><text fill="#000000" font-family="sans-serif" font-size="14" lengthAdjust="spacing" textLength="107" x="746" y="558.5889">target_identifier</text><text fill="#000000" font-family="sans-serif" font-size="14" lengthAdjust="spacing" textLength="77" x="746" y="574.8857">description</text><text fill="#000000" font-family="sans-serif" font-size="14" lengthAdjust="spacing" textLength="70" x="746" y="591.1826">synonyms</text></g><!--class Conversation--><g id="elem_Conversation"><rect codeLine="68" fill="#F1F1F1" height="56.2969" id="Conversation" rx="2.5" ry="2.5" style="stroke:#181818;stroke-width:0.5;" width="123" x="1253.5" y="368.7969"/><ellipse cx="1268.5" cy="384.7969" fill="#ADD1B2" rx="11" ry="11" style="stroke:#181818;stroke-width:1.0;"/><path d="M1271.4688,390.4375 Q1270.8906,390.7344 1270.25,390.875 Q1269.6094,391.0313 1268.9063,391.0313 Q1266.4063,391.0313 1265.0781,389.3906 Q1263.7656,387.7344 1263.7656,384.6094 Q1263.7656,381.4844 1265.0781,379.8281 Q1266.4063,378.1719 1268.9063,378.1719 Q1269.6094,378.1719 1270.25,378.3281 Q1270.9063,378.4844 1271.4688,378.7813 L1271.4688,381.5 Q1270.8438,380.9219 1270.25,380.6563 Q1269.6563,380.375 1269.0313,380.375 Q1267.6875,380.375 1267,381.4531 Q1266.3125,382.5156 1266.3125,384.6094 Q1266.3125,386.7031 1267,387.7813 Q1267.6875,388.8438 1269.0313,388.8438 Q1269.6563,388.8438 1270.25,388.5781 Q1270.8438,388.2969 1271.4688,387.7188 L1271.4688,390.4375 Z " fill="#000000"/><text fill="#000000" font-family="sans-serif" font-size="14" lengthAdjust="spacing" textLength="91" x="1282.5" y="389.6436">Conversation</text><line style="stroke:#181818;stroke-width:0.5;" x1="1254.5" x2="1375.5" y1="400.7969" y2="400.7969"/><text fill="#000000" font-family="sans-serif" font-size="14" lengthAdjust="spacing" textLength="43" x="1259.5" y="417.792">status</text></g><!--class Message--><g id="elem_Message"><rect codeLine="72" fill="#F1F1F1" height="72.5938" id="Message" rx="2.5" ry="2.5" style="stroke:#181818;stroke-width:0.5;" width="143" x="1307.5" y="658.2969"/><ellipse cx="1344.1" cy="674.2969" fill="#ADD1B2" rx="11" ry="11" style="stroke:#181818;stroke-width:1.0;"/><path d="M1347.0688,679.9375 Q1346.4906,680.2344 1345.85,680.375 Q1345.2094,680.5313 1344.5063,680.5313 Q1342.0063,680.5313 1340.6781,678.8906 Q1339.3656,677.2344 1339.3656,674.1094 Q1339.3656,670.9844 1340.6781,669.3281 Q1342.0063,667.6719 1344.5063,667.6719 Q1345.2094,667.6719 1345.85,667.8281 Q1346.5063,667.9844 1347.0688,668.2813 L1347.0688,671 Q1346.4438,670.4219 1345.85,670.1563 Q1345.2563,669.875 1344.6313,669.875 Q1343.2875,669.875 1342.6,670.9531 Q1341.9125,672.0156 1341.9125,674.1094 Q1341.9125,676.2031 1342.6,677.2813 Q1343.2875,678.3438 1344.6313,678.3438 Q1345.2563,678.3438 1345.85,678.0781 Q1346.4438,677.7969 1347.0688,677.2188 L1347.0688,679.9375 Z " fill="#000000"/><text fill="#000000" font-family="sans-serif" font-size="14" lengthAdjust="spacing" textLength="63" x="1362.9" y="679.1436">Message</text><line style="stroke:#181818;stroke-width:0.5;" x1="1308.5" x2="1449.5" y1="690.2969" y2="690.2969"/><text fill="#000000" font-family="sans-serif" font-size="14" lengthAdjust="spacing" textLength="26" x="1313.5" y="707.292">role</text><text fill="#000000" font-family="sans-serif" font-size="14" lengthAdjust="spacing" textLength="131" x="1313.5" y="723.5889">sequence_number</text></g><!--class QuestionRun--><g id="elem_QuestionRun"><rect codeLine="77" fill="#F1F1F1" height="56.2969" id="QuestionRun" rx="2.5" ry="2.5" style="stroke:#181818;stroke-width:0.5;" width="123" x="1253.5" y="517.7969"/><ellipse cx="1268.5" cy="533.7969" fill="#ADD1B2" rx="11" ry="11" style="stroke:#181818;stroke-width:1.0;"/><path d="M1271.4688,539.4375 Q1270.8906,539.7344 1270.25,539.875 Q1269.6094,540.0313 1268.9063,540.0313 Q1266.4063,540.0313 1265.0781,538.3906 Q1263.7656,536.7344 1263.7656,533.6094 Q1263.7656,530.4844 1265.0781,528.8281 Q1266.4063,527.1719 1268.9063,527.1719 Q1269.6094,527.1719 1270.25,527.3281 Q1270.9063,527.4844 1271.4688,527.7813 L1271.4688,530.5 Q1270.8438,529.9219 1270.25,529.6563 Q1269.6563,529.375 1269.0313,529.375 Q1267.6875,529.375 1267,530.4531 Q1266.3125,531.5156 1266.3125,533.6094 Q1266.3125,535.7031 1267,536.7813 Q1267.6875,537.8438 1269.0313,537.8438 Q1269.6563,537.8438 1270.25,537.5781 Q1270.8438,537.2969 1271.4688,536.7188 L1271.4688,539.4375 Z " fill="#000000"/><text fill="#000000" font-family="sans-serif" font-size="14" lengthAdjust="spacing" textLength="91" x="1282.5" y="538.6436">QuestionRun</text><line style="stroke:#181818;stroke-width:0.5;" x1="1254.5" x2="1375.5" y1="549.7969" y2="549.7969"/><text fill="#000000" font-family="sans-serif" font-size="14" lengthAdjust="spacing" textLength="43" x="1259.5" y="566.792">status</text></g><!--class ExecutionTrace--><g id="elem_ExecutionTrace"><rect codeLine="81" fill="#F1F1F1" height="72.5938" id="ExecutionTrace" rx="2.5" ry="2.5" style="stroke:#181818;stroke-width:0.5;" width="139" x="1133.5" y="658.2969"/><ellipse cx="1148.5" cy="674.2969" fill="#ADD1B2" rx="11" ry="11" style="stroke:#181818;stroke-width:1.0;"/><path d="M1151.4688,679.9375 Q1150.8906,680.2344 1150.25,680.375 Q1149.6094,680.5313 1148.9063,680.5313 Q1146.4063,680.5313 1145.0781,678.8906 Q1143.7656,677.2344 1143.7656,674.1094 Q1143.7656,670.9844 1145.0781,669.3281 Q1146.4063,667.6719 1148.9063,667.6719 Q1149.6094,667.6719 1150.25,667.8281 Q1150.9063,667.9844 1151.4688,668.2813 L1151.4688,671 Q1150.8438,670.4219 1150.25,670.1563 Q1149.6563,669.875 1149.0313,669.875 Q1147.6875,669.875 1147,670.9531 Q1146.3125,672.0156 1146.3125,674.1094 Q1146.3125,676.2031 1147,677.2813 Q1147.6875,678.3438 1149.0313,678.3438 Q1149.6563,678.3438 1150.25,678.0781 Q1150.8438,677.7969 1151.4688,677.2188 L1151.4688,679.9375 Z " fill="#000000"/><text fill="#000000" font-family="sans-serif" font-size="14" lengthAdjust="spacing" textLength="107" x="1162.5" y="679.1436">ExecutionTrace</text><line style="stroke:#181818;stroke-width:0.5;" x1="1134.5" x2="1271.5" y1="690.2969" y2="690.2969"/><text fill="#000000" font-family="sans-serif" font-size="14" lengthAdjust="spacing" textLength="31" x="1139.5" y="707.292">step</text><text fill="#000000" font-family="sans-serif" font-size="14" lengthAdjust="spacing" textLength="43" x="1139.5" y="723.5889">status</text></g><g id="elem_GMN35"><path d="M530,228.7969 L530,245.2969 L495.15,249.2969 L530,253.2969 L530,269.0625 A0,0 0 0 0 530,269.0625 L730,269.0625 A0,0 0 0 0 730,269.0625 L730,238.7969 L720,228.7969 L530,228.7969 A0,0 0 0 0 530,228.7969 " fill="#FEFFDD" style="stroke:#181818;stroke-width:0.5;"/><path d="M720,228.7969 L720,238.7969 L730,238.7969 L720,228.7969 " fill="#FEFFDD" style="stroke:#181818;stroke-width:0.5;"/><text fill="#000000" font-family="sans-serif" font-size="13" lengthAdjust="spacing" textLength="174" x="536" y="245.8638">Central aggregate root and</text><text fill="#000000" font-family="sans-serif" font-size="13" lengthAdjust="spacing" textLength="179" x="536" y="260.9966">data exploration workspace.</text></g><g id="elem_GMN38"><path d="M1483,376.7969 L1483,417.0625 L1685,417.0625 L1685,386.7969 L1675,376.7969 L1483,376.7969 " fill="#FEFFDD" style="stroke:#181818;stroke-width:0.5;"/><path d="M1675,376.7969 L1675,386.7969 L1685,386.7969 L1675,376.7969 " fill="#FEFFDD" style="stroke:#181818;stroke-width:1.0;"/><text fill="#000000" font-family="sans-serif" font-size="13" lengthAdjust="spacing" textLength="181" x="1489" y="393.8638">PostgreSQL only in the MVP.</text><text fill="#000000" font-family="sans-serif" font-size="13" lengthAdjust="spacing" textLength="127" x="1489" y="408.9966">Access is read-only.</text></g><g id="elem_GMN41"><path d="M1720.5,376.7969 L1720.5,417.0625 L1891.5,417.0625 L1891.5,386.7969 L1881.5,376.7969 L1720.5,376.7969 " fill="#FEFFDD" style="stroke:#181818;stroke-width:0.5;"/><path d="M1881.5,376.7969 L1881.5,386.7969 L1891.5,386.7969 L1881.5,376.7969 " fill="#FEFFDD" style="stroke:#181818;stroke-width:1.0;"/><text fill="#000000" font-family="sans-serif" font-size="13" lengthAdjust="spacing" textLength="150" x="1726.5" y="393.8638">Semantic layer used by</text><text fill="#000000" font-family="sans-serif" font-size="13" lengthAdjust="spacing" textLength="128" x="1726.5" y="408.9966">the AI query engine.</text></g><g id="elem_GMN44"><path d="M1483.5,502.7969 L1483.5,588.4609 L1734.5,588.4609 L1734.5,512.7969 L1724.5,502.7969 L1483.5,502.7969 " fill="#FEFFDD" style="stroke:#181818;stroke-width:0.5;"/><path d="M1724.5,502.7969 L1724.5,512.7969 L1734.5,512.7969 L1724.5,502.7969 " fill="#FEFFDD" style="stroke:#181818;stroke-width:1.0;"/><text fill="#000000" font-family="sans-serif" font-size="13" lengthAdjust="spacing" textLength="183" x="1489.5" y="519.8638">Immutable representation of</text><text fill="#000000" font-family="sans-serif" font-size="13" lengthAdjust="spacing" textLength="230" x="1489.5" y="534.9966">the source schema at capture time.</text><text fill="#000000" font-family="sans-serif" font-size="13" lengthAdjust="spacing" textLength="187" x="1489.5" y="550.1294">Catalog regeneration creates</text><text fill="#000000" font-family="sans-serif" font-size="13" lengthAdjust="spacing" textLength="104" x="1489.5" y="565.2622">a new snapshot.</text><text fill="#000000" font-family="sans-serif" font-size="13" lengthAdjust="spacing" textLength="157" x="1489.5" y="580.395">One snapshot is current.</text></g><g id="elem_GMN47"><path d="M1769.5,525.7969 L1769.5,566.0625 L1982.5,566.0625 L1982.5,535.7969 L1972.5,525.7969 L1769.5,525.7969 " fill="#FEFFDD" style="stroke:#181818;stroke-width:0.5;"/><path d="M1972.5,525.7969 L1972.5,535.7969 L1982.5,535.7969 L1972.5,525.7969 " fill="#FEFFDD" style="stroke:#181818;stroke-width:1.0;"/><text fill="#000000" font-family="sans-serif" font-size="13" lengthAdjust="spacing" textLength="192" x="1775.5" y="542.8638">Generated automatically from</text><text fill="#000000" font-family="sans-serif" font-size="13" lengthAdjust="spacing" textLength="179" x="1775.5" y="557.9966">catalog technical metadata.</text></g><g id="elem_GMN50"><path d="M2017.5,525.7969 L2017.5,566.0625 L2214.5,566.0625 L2214.5,535.7969 L2204.5,525.7969 L2017.5,525.7969 " fill="#FEFFDD" style="stroke:#181818;stroke-width:0.5;"/><path d="M2204.5,525.7969 L2204.5,535.7969 L2214.5,535.7969 L2204.5,525.7969 " fill="#FEFFDD" style="stroke:#181818;stroke-width:1.0;"/><text fill="#000000" font-family="sans-serif" font-size="13" lengthAdjust="spacing" textLength="167" x="2023.5" y="542.8638">Represents one controlled</text><text fill="#000000" font-family="sans-serif" font-size="13" lengthAdjust="spacing" textLength="176" x="2023.5" y="557.9966">execution of the AI pipeline.</text></g><!--reverse link User to UserPreferences--><g id="link_User_UserPreferences"><path codeLine="87" d="M205.99,116.2969 C160,116.2969 97,116.2969 97,116.2969 C97,116.2969 97,181.8069 97,220.6969 " fill="none" id="User-backto-UserPreferences" style="stroke:#181818;stroke-width:1.0;"/><polygon fill="#181818" points="217.99,116.2969,211.99,112.2969,205.99,116.2969,211.99,120.2969,217.99,116.2969" style="stroke:#181818;stroke-width:1.0;"/><text fill="#000000" font-family="sans-serif" font-size="13" lengthAdjust="spacing" textLength="76" x="28.3" y="112.3638">preferences</text><text fill="#000000" font-family="sans-serif" font-size="13" lengthAdjust="spacing" textLength="8" x="201.9442" y="111.9756">1</text><text fill="#000000" font-family="sans-serif" font-size="13" lengthAdjust="spacing" textLength="24" x="70.225" y="209.5123">0..1</text></g><!--link User to Project--><g id="link_User_Project"><path codeLine="88" d="M288.19,116.2969 C346.06,116.2969 455,116.2969 455,116.2969 C455,116.2969 455,173.0169 455,212.2369 " fill="none" id="User-Project" style="stroke:#181818;stroke-width:1.0;"/><text fill="#000000" font-family="sans-serif" font-size="13" lengthAdjust="spacing" textLength="32" x="386.56" y="112.3638">owns</text><text fill="#000000" font-family="sans-serif" font-size="13" lengthAdjust="spacing" textLength="8" x="295.9055" y="112.0387">1</text><text fill="#000000" font-family="sans-serif" font-size="13" lengthAdjust="spacing" textLength="23" x="429.8797" y="201.2299">0..*</text></g><!--reverse link User to Invitation--><g id="link_User_Invitation"><path codeLine="90" d="M241.33,158.4869 C241.33,177.0969 241.33,193.6269 241.33,212.2169 " fill="none" id="User-backto-Invitation" style="stroke:#181818;stroke-width:1.0;"/><polygon fill="#181818" points="241.33,152.4869,237.33,161.4869,241.33,157.4869,245.33,161.4869,241.33,152.4869" style="stroke:#181818;stroke-width:1.0;"/><text fill="#000000" font-family="sans-serif" font-size="13" lengthAdjust="spacing" textLength="68" x="242.33" y="195.4238">created by</text><text fill="#000000" font-family="sans-serif" font-size="13" lengthAdjust="spacing" textLength="8" x="230.7347" y="171.9174">1</text><text fill="#000000" font-family="sans-serif" font-size="13" lengthAdjust="spacing" textLength="23" x="214.058" y="201.2062">0..*</text></g><!--link Invitation to User--><g id="link_Invitation_User"><path codeLine="91" d="M264.67,212.1069 C264.67,193.4969 264.67,176.9669 264.67,158.3769 " fill="none" id="Invitation-to-User" style="stroke:#181818;stroke-width:1.0;"/><polygon fill="#181818" points="264.67,152.3769,260.67,161.3769,264.67,157.3769,268.67,161.3769,264.67,152.3769" style="stroke:#181818;stroke-width:1.0;"/><text fill="#000000" font-family="sans-serif" font-size="13" lengthAdjust="spacing" textLength="78" x="185.67" y="178.3038">accepted by</text><text fill="#000000" font-family="sans-serif" font-size="13" lengthAdjust="spacing" textLength="24" x="268.8862" y="201.3504">0..1</text><text fill="#000000" font-family="sans-serif" font-size="13" lengthAdjust="spacing" textLength="24" x="268.7383" y="172.0663">0..1</text></g><!--reverse link Project to DataSource--><g id="link_Project_DataSource"><path codeLine="93" d="M441.67,297.3769 C441.67,320.1469 441.67,337.3369 441.67,360.1169 " fill="none" id="Project-backto-DataSource" style="stroke:#181818;stroke-width:1.0;"/><polygon fill="#181818" points="441.67,285.3769,437.67,291.3769,441.67,297.3769,445.67,291.3769,441.67,285.3769" style="stroke:#181818;stroke-width:1.0;"/><text fill="#000000" font-family="sans-serif" font-size="13" lengthAdjust="spacing" textLength="76" x="364.67" y="318.8138">data source</text><text fill="#000000" font-family="sans-serif" font-size="13" lengthAdjust="spacing" textLength="8" x="430.6914" y="305.0663">1</text><text fill="#000000" font-family="sans-serif" font-size="13" lengthAdjust="spacing" textLength="24" x="418.5018" y="349.3622">0..1</text></g><!--reverse link Project to CatalogScope--><g id="link_Project_CatalogScope"><path codeLine="94" d="M507.41,277.2969 C638.22,277.2969 1029.67,277.2969 1029.67,277.2969 C1029.67,277.2969 1029.67,435.4869 1029.67,509.0269 " fill="none" id="Project-backto-CatalogScope" style="stroke:#181818;stroke-width:1.0;"/><polygon fill="#181818" points="495.41,277.2969,501.41,281.2969,507.41,277.2969,501.41,273.2969,495.41,277.2969" style="stroke:#181818;stroke-width:1.0;"/><text fill="#000000" font-family="sans-serif" font-size="13" lengthAdjust="spacing" textLength="38" x="839.4" y="273.3638">scope</text><text fill="#000000" font-family="sans-serif" font-size="13" lengthAdjust="spacing" textLength="8" x="503.043" y="278.0195">1</text><text fill="#000000" font-family="sans-serif" font-size="13" lengthAdjust="spacing" textLength="24" x="1007.7487" y="498.2562">0..1</text></g><!--reverse link Project to KnowledgeCatalog--><g id="link_Project_KnowledgeCatalog"><path codeLine="95" d="M507.11,281.2969 C601.92,281.2969 820,281.2969 820,281.2969 C820,281.2969 820,326.4169 820,360.2569 " fill="none" id="Project-backto-KnowledgeCatalog" style="stroke:#181818;stroke-width:1.0;"/><polygon fill="#181818" points="495.11,281.2969,501.11,285.2969,507.11,281.2969,501.11,277.2969,495.11,281.2969" style="stroke:#181818;stroke-width:1.0;"/><text fill="#000000" font-family="sans-serif" font-size="13" lengthAdjust="spacing" textLength="47" x="649.03" y="294.3638">catalog</text><text fill="#000000" font-family="sans-serif" font-size="13" lengthAdjust="spacing" textLength="8" x="502.9671" y="300.5368">1</text><text fill="#000000" font-family="sans-serif" font-size="13" lengthAdjust="spacing" textLength="24" x="793.7875" y="349.2536">0..1</text></g><!--reverse link Project to Conversation--><g id="link_Project_Conversation"><path codeLine="96" d="M507.04,273.2969 C676.62,273.2969 1315,273.2969 1315,273.2969 C1315,273.2969 1315,332.3369 1315,368.7769 " fill="none" id="Project-backto-Conversation" style="stroke:#181818;stroke-width:1.0;"/><polygon fill="#181818" points="495.04,273.2969,501.04,277.2969,507.04,273.2969,501.04,269.2969,495.04,273.2969" style="stroke:#181818;stroke-width:1.0;"/><text fill="#000000" font-family="sans-serif" font-size="13" lengthAdjust="spacing" textLength="89" x="953.76" y="269.3638">conversations</text><text fill="#000000" font-family="sans-serif" font-size="13" lengthAdjust="spacing" textLength="8" x="502.8075" y="299.4817">1</text><text fill="#000000" font-family="sans-serif" font-size="13" lengthAdjust="spacing" textLength="23" x="1289.3406" y="357.6108">0..*</text></g><!--link KnowledgeCatalog to CatalogScope--><g id="link_KnowledgeCatalog_CatalogScope"><path codeLine="98" d="M900.69,431.2969 C941.43,431.2969 982.33,431.2969 982.33,431.2969 C982.33,431.2969 982.33,469.7469 982.33,503.2569 " fill="none" id="KnowledgeCatalog-to-CatalogScope" style="stroke:#181818;stroke-width:1.0;"/><polygon fill="#181818" points="982.33,509.2569,986.33,500.2569,982.33,504.2569,978.33,500.2569,982.33,509.2569" style="stroke:#181818;stroke-width:1.0;"/><text fill="#000000" font-family="sans-serif" font-size="13" lengthAdjust="spacing" textLength="61" x="981.49" y="427.3638">built from</text><text fill="#000000" font-family="sans-serif" font-size="13" lengthAdjust="spacing" textLength="24" x="908.3659" y="430.622">0..1</text><text fill="#000000" font-family="sans-serif" font-size="13" lengthAdjust="spacing" textLength="8" x="969.2283" y="498.2536">1</text></g><!--reverse link KnowledgeCatalog to SchemaSnapshot--><g id="link_KnowledgeCatalog_SchemaSnapshot"><path codeLine="100" d="M727.26,397.2969 C665.31,397.2969 602.33,397.2969 602.33,397.2969 C602.33,397.2969 602.33,465.1169 602.33,509.0869 " fill="none" id="KnowledgeCatalog-backto-SchemaSnapshot" style="stroke:#181818;stroke-width:1.0;"/><polygon fill="#181818" points="739.26,397.2969,733.26,393.2969,727.26,397.2969,733.26,401.2969,739.26,397.2969" style="stroke:#181818;stroke-width:1.0;"/><text fill="#000000" font-family="sans-serif" font-size="13" lengthAdjust="spacing" textLength="66" x="547.9" y="393.3638">snapshots</text><text fill="#000000" font-family="sans-serif" font-size="13" lengthAdjust="spacing" textLength="8" x="723.448" y="393.7433">1</text><text fill="#000000" font-family="sans-serif" font-size="13" lengthAdjust="spacing" textLength="23" x="572.7091" y="498.3269">0..*</text></g><!--reverse link KnowledgeCatalog to SemanticMetadata--><g id="link_KnowledgeCatalog_SemanticMetadata"><path codeLine="101" d="M820,445.6269 C820,463.5569 820,473.4269 820,493.0769 " fill="none" id="KnowledgeCatalog-backto-SemanticMetadata" style="stroke:#181818;stroke-width:1.0;"/><polygon fill="#181818" points="820,433.6269,816,439.6269,820,445.6269,824,439.6269,820,433.6269" style="stroke:#181818;stroke-width:1.0;"/><text fill="#000000" font-family="sans-serif" font-size="13" lengthAdjust="spacing" textLength="126" x="821" y="459.4238">semantic metadata</text><text fill="#000000" font-family="sans-serif" font-size="13" lengthAdjust="spacing" textLength="8" x="811.3375" y="453.0806">1</text><text fill="#000000" font-family="sans-serif" font-size="13" lengthAdjust="spacing" textLength="23" x="795.4547" y="482.048">0..*</text></g><!--reverse link Conversation to Message--><g id="link_Conversation_Message"><path codeLine="103" d="M1388.54,421.2969 C1408.45,421.2969 1413.5,421.2969 1413.5,421.2969 C1413.5,421.2969 1413.5,583.6669 1413.5,658.1969 " fill="none" id="Conversation-backto-Message" style="stroke:#181818;stroke-width:1.0;"/><polygon fill="#181818" points="1376.54,421.2969,1382.54,425.2969,1388.54,421.2969,1382.54,417.2969,1376.54,421.2969" style="stroke:#181818;stroke-width:1.0;"/><text fill="#000000" font-family="sans-serif" font-size="13" lengthAdjust="spacing" textLength="66" x="1414.5" y="517.3338">messages</text><text fill="#000000" font-family="sans-serif" font-size="13" lengthAdjust="spacing" textLength="8" x="1384.5277" y="420.4256">1</text><text fill="#000000" font-family="sans-serif" font-size="13" lengthAdjust="spacing" textLength="23" x="1394.7406" y="647.1825">0..*</text></g><!--reverse link Conversation to QuestionRun--><g id="link_Conversation_QuestionRun"><path codeLine="104" d="M1315,430.8269 C1315,457.3769 1315,491.0469 1315,517.6469 " fill="none" id="Conversation-backto-QuestionRun" style="stroke:#181818;stroke-width:1.0;"/><polygon fill="#181818" points="1315,424.8269,1311,433.8269,1315,429.8269,1319,433.8269,1315,424.8269" style="stroke:#181818;stroke-width:1.0;"/><text fill="#000000" font-family="sans-serif" font-size="13" lengthAdjust="spacing" textLength="67" x="1247" y="467.3038">belongs to</text><text fill="#000000" font-family="sans-serif" font-size="13" lengthAdjust="spacing" textLength="24" x="1288.225" y="445.0911">0..1</text><text fill="#000000" font-family="sans-serif" font-size="13" lengthAdjust="spacing" textLength="23" x="1289.4844" y="506.8974">0..*</text></g><!--link QuestionRun to Message--><g id="link_QuestionRun_Message"><path codeLine="106" d="M1324.75,573.8269 C1324.75,597.6769 1324.75,626.1269 1324.75,652.1569 " fill="none" id="QuestionRun-to-Message" style="stroke:#181818;stroke-width:1.0;"/><polygon fill="#181818" points="1324.75,658.1569,1328.75,649.1569,1324.75,653.1569,1320.75,649.1569,1324.75,658.1569" style="stroke:#181818;stroke-width:1.0;"/><text fill="#000000" font-family="sans-serif" font-size="13" lengthAdjust="spacing" textLength="65" x="1258.75" y="612.0538">started by</text><text fill="#000000" font-family="sans-serif" font-size="13" lengthAdjust="spacing" textLength="8" x="1318.0797" y="594.0911">1</text><text fill="#000000" font-family="sans-serif" font-size="13" lengthAdjust="spacing" textLength="24" x="1288.5352" y="647.1352">0..1</text></g><!--link QuestionRun to Message--><g id="link_QuestionRun_Message"><path codeLine="107" d="M1342,573.8269 C1342,597.6769 1342,626.1269 1342,652.1569 " fill="none" id="QuestionRun-to-Message-1" style="stroke:#181818;stroke-width:1.0;"/><polygon fill="#181818" points="1342,658.1569,1346,649.1569,1342,653.1569,1338,649.1569,1342,658.1569" style="stroke:#181818;stroke-width:1.0;"/><text fill="#000000" font-family="sans-serif" font-size="13" lengthAdjust="spacing" textLength="59" x="1282" y="629.0538">produces</text><text fill="#000000" font-family="sans-serif" font-size="13" lengthAdjust="spacing" textLength="8" x="1339.3188" y="594.0911">1</text><text fill="#000000" font-family="sans-serif" font-size="13" lengthAdjust="spacing" textLength="24" x="1337.3906" y="647.1352">0..1</text></g><!--reverse link QuestionRun to ExecutionTrace--><g id="link_QuestionRun_ExecutionTrace"><path codeLine="108" d="M1263,585.8269 C1263,609.6769 1263,632.1269 1263,658.1569 " fill="none" id="QuestionRun-backto-ExecutionTrace" style="stroke:#181818;stroke-width:1.0;"/><polygon fill="#181818" points="1263,573.8269,1259,579.8269,1263,585.8269,1267,579.8269,1263,573.8269" style="stroke:#181818;stroke-width:1.0;"/><text fill="#000000" font-family="sans-serif" font-size="13" lengthAdjust="spacing" textLength="40" x="1222" y="629.0538">traces</text><text fill="#000000" font-family="sans-serif" font-size="13" lengthAdjust="spacing" textLength="8" x="1242.05" y="594.0911">1</text><text fill="#000000" font-family="sans-serif" font-size="13" lengthAdjust="spacing" textLength="23" x="1248.9422" y="647.1352">0..*</text></g><!--link DataSource to GMN38--><g id="link_DataSource_GMN38"><path d="M468.33,360.0469 C468.33,341.6769 468.33,323.2969 468.33,323.2969 C468.33,323.2969 1584,323.2969 1584,323.2969 C1584,323.2969 1584,354.9469 1584,376.7169 " fill="none" id="DataSource-GMN38" style="stroke:#181818;stroke-width:1.0;stroke-dasharray:7.0,7.0;"/></g><!--link KnowledgeCatalog to GMN41--><g id="link_KnowledgeCatalog_GMN41"><path d="M900.53,428.2969 C1122.63,428.2969 1727.5,428.2969 1727.5,428.2969 C1727.5,428.2969 1727.5,423.0969 1727.5,416.9269 " fill="none" id="KnowledgeCatalog-GMN41" style="stroke:#181818;stroke-width:1.0;stroke-dasharray:7.0,7.0;"/></g><!--link SchemaSnapshot to GMN44--><g id="link_SchemaSnapshot_GMN44"><path d="M653.67,508.8869 C653.67,486.9269 653.67,463.2969 653.67,463.2969 C653.67,463.2969 1584.25,463.2969 1584.25,463.2969 C1584.25,463.2969 1584.25,482.6569 1584.25,502.6169 " fill="none" id="SchemaSnapshot-GMN44" style="stroke:#181818;stroke-width:1.0;stroke-dasharray:7.0,7.0;"/></g><!--link SemanticMetadata to GMN47--><g id="link_SemanticMetadata_GMN47"><path d="M900.14,498.2969 C1139.14,498.2969 1830.5,498.2969 1830.5,498.2969 C1830.5,498.2969 1830.5,512.7069 1830.5,525.6569 " fill="none" id="SemanticMetadata-GMN47" style="stroke:#181818;stroke-width:1.0;stroke-dasharray:7.0,7.0;"/></g><!--link QuestionRun to GMN50--><g id="link_QuestionRun_GMN50"><path d="M1359.25,574.0069 C1359.25,584.6769 1359.25,594.2969 1359.25,594.2969 C1359.25,594.2969 2116,594.2969 2116,594.2969 C2116,594.2969 2116,579.1669 2116,565.8069 " fill="none" id="QuestionRun-GMN50" style="stroke:#181818;stroke-width:1.0;stroke-dasharray:7.0,7.0;"/></g><!--SRC=[ZLRRZjis47tNLmpy6C2BzDKe2YmsHM2qHZTnBuyBMXhBx5AaIevsemO1-X7zmdv93oNAfhJhj7unBpDdBZmp8z5Yc6x3uwv_fqJHFt_zJUzSexIbdQlO5CL9LqmDoybLOTm4OSzE-fP3KOH7RLlbLKEbKI7SYdXzw8ItfRDx_IVJsqp4QCjHZvm7NdRHgl9HrRoN7jvuBaNPsd1Hf7DQRIksegKdPIkwBKiEOKMVYu96i_HBO8yzuSVmtWmh7HvKAVg9iViobxttV4GK5a19pS1a1rjpsQrzqg94Evl40dPT60rzQhLds911vqlcxhrtloCA-itvnu1JdZaxtOw8LZKyXyxinqVPkywNFDaVDWynYyCUQRR0WeCFcNxkom_MFHkkiBm3c77rp9TqjYzTUpR11eXSFOJoX6I6-Q6eW-65bsSJ2Iq1FR4FSEngSFi1VszL6qvENb4gLIkTXz6KueiczC27SiUYgiZRKLUKhrakoKbxFP3dgDaFfnM7qkjMpgxrrjc-UPcvEsUZD-FpH-9z_udBBkxcASp5Fb-DTWVEHjXHmZkJNft_w28F7spN70OFCvqF7OS8-x7x6lBPhP-zkX15k5rgG6SebDKtAtgpNjFgxSqDbik2s51xsLqqaiARrPd06tBFDcIWtrvaiihPKEbPWJnqw8liF9bVhx_BFO6uGe6tIRwOZ2sSpYfZGmC7njAu9ZyZ-eP2_Byc-uBFY61SlQg1Q6SSsCIgF6-HdnTuUUGlVJjqsWWTlMjUKvqRNjGG0alByD-gooA2SZgA3NyuAufPP0k4YT8Ro0-hi10VmynOaHCQWR9njWuahYZoczMS5HSpuB9FlFXVygrtLHT9l9JEWbXKpuOa_kFLh1CC8rsVXDnnuZpgw0xTn2j3gguzroeAEQGU3GANGo8n6OppOmwUfn5mKp1QI0HTGb-e381x5mIu-my_ahEc9qnYEJ7jVhs_mUqu-Z3PC2LLjOuIrt6N183-zEOOTprAhGjZCccmSRibz2BV4ziQa_ewy9nqqDusJJSC1hY5tX6GeJ5wTqpOOt7IE598oTJRINJ3CRA9f4WfMqx96_j6R5wAB3-VoHqLVh9ytiU4b9r7nvAlUBtWEp3UZwQG1DK9FdjmgmoIFjGUJKLFmkN9ngjpNLotaZ4D21-dT0Iy9iU-8EZyU9GYVZyauaMrbFzMjspckVyN]--></g></svg>