<?xml version="1.0" encoding="us-ascii" standalone="no"?><svg xmlns="http://www.w3.org/2000/svg" xmlns:xlink="http://www.w3.org/1999/xlink" contentStyleType="text/css" height="724px" preserveAspectRatio="none" style="width:862px;height:724px;background:#FFFFFF;" version="1.1" viewBox="0 0 862 724" width="862px" zoomAndPan="magnify"><defs/><g><text fill="#000000" font-family="sans-serif" font-size="14" font-weight="bold" lengthAdjust="spacing" textLength="235" x="306.5" y="22.9951">AskMyData &#8212; System Context</text><!--entity User--><g id="elem_User"><ellipse cx="51.5" cy="355.7969" fill="#F1F1F1" rx="8" ry="8" style="stroke:#181818;stroke-width:0.5;"/><path d="M51.5,363.7969 L51.5,390.7969 M38.5,371.7969 L64.5,371.7969 M51.5,390.7969 L38.5,405.7969 M51.5,390.7969 L64.5,405.7969 " fill="none" style="stroke:#181818;stroke-width:0.5;"/><text fill="#000000" font-family="sans-serif" font-size="14" lengthAdjust="spacing" textLength="32" x="35.5" y="420.292">User</text></g><!--entity Administrator--><g id="elem_Administrator"><ellipse cx="51.5" cy="466.7969" fill="#F1F1F1" rx="8" ry="8" style="stroke:#181818;stroke-width:0.5;"/><path d="M51.5,474.7969 L51.5,501.7969 M38.5,482.7969 L64.5,482.7969 M51.5,501.7969 L38.5,516.7969 M51.5,501.7969 L64.5,516.7969 " fill="none" style="stroke:#181818;stroke-width:0.5;"/><text fill="#000000" font-family="sans-serif" font-size="14" lengthAdjust="spacing" textLength="91" x="6" y="531.292">Administrator</text></g><!--entity AskMyData--><g id="elem_AskMyData"><rect fill="#F1F1F1" height="52.5938" rx="2.5" ry="2.5" style="stroke:#181818;stroke-width:0.5;" width="148" x="279" y="414.7969"/><text fill="#000000" font-family="sans-serif" font-size="14" lengthAdjust="spacing" textLength="76" x="289" y="437.792">AskMyData</text><text fill="#000000" font-family="sans-serif" font-size="14" lengthAdjust="spacing" textLength="128" x="289" y="454.0889">(Modular Monolith)</text></g><!--entity AppDB--><g id="elem_AppDB"><path d="M661.5,53.2969 C661.5,43.2969 744,43.2969 744,43.2969 C744,43.2969 826.5,43.2969 826.5,53.2969 L826.5,94.8906 C826.5,104.8906 744,104.8906 744,104.8906 C744,104.8906 661.5,104.8906 661.5,94.8906 L661.5,53.2969 " fill="#F1F1F1" style="stroke:#181818;stroke-width:0.5;"/><path d="M661.5,53.2969 C661.5,63.2969 744,63.2969 744,63.2969 C744,63.2969 826.5,63.2969 826.5,53.2969 " fill="none" style="stroke:#181818;stroke-width:0.5;"/><text fill="#000000" font-family="sans-serif" font-size="14" lengthAdjust="spacing" textLength="145" x="671.5" y="80.292">Application Database</text><text fill="#000000" font-family="sans-serif" font-size="14" lengthAdjust="spacing" textLength="91" x="671.5" y="96.5889">(PostgreSQL)</text></g><!--entity DataSource--><g id="elem_DataSource"><path d="M662,287.2969 C662,277.2969 744,277.2969 744,277.2969 C744,277.2969 826,277.2969 826,287.2969 L826,328.8906 C826,338.8906 744,338.8906 744,338.8906 C744,338.8906 662,338.8906 662,328.8906 L662,287.2969 " fill="#F1F1F1" style="stroke:#181818;stroke-width:0.5;"/><path d="M662,287.2969 C662,297.2969 744,297.2969 744,297.2969 C744,297.2969 826,297.2969 826,287.2969 " fill="none" style="stroke:#181818;stroke-width:0.5;"/><text fill="#000000" font-family="sans-serif" font-size="14" lengthAdjust="spacing" textLength="144" x="672" y="314.292">External Data Source</text><text fill="#000000" font-family="sans-serif" font-size="14" lengthAdjust="spacing" textLength="91" x="672" y="330.5889">(PostgreSQL)</text></g><!--entity LLM--><g id="elem_LLM"><path d="M694.1347,489.4718 C698.5535,482.9039 704.7832,483.6949 708.0156,490.6863 C710.5057,484.6781 715.0971,482.8799 719.7105,488.562 C724.337,481.835 728.3201,482.7952 732.976,488.5308 C736.5014,482.1492 741.8979,481.5467 746.0125,487.929 C748.8586,482.9407 752.9864,482.3785 756.584,487.1118 C760.7483,481.2896 766.3781,481.3015 769.3674,488.2847 C774.4459,482.522 779.1002,483.3352 781.9697,490.4471 C786.3457,482.7176 790.6108,482.4378 796.0455,489.4353 C807.1294,490.8992 810.1957,496.8711 803.642,506.2862 C808.6511,514.8211 804.0338,520.355 795.3387,521.322 C791.4684,528.2736 785.0891,527.3154 781.5611,520.9673 C778.7876,526.973 774.0035,527.2386 770.1875,522.0241 C766.0089,529.1078 760.7862,528.7888 756.8808,521.7664 C753.7673,526.9539 750.0841,526.8951 746.0629,522.8274 C741.564,528.7081 736.2844,529.2667 732.2807,522.2964 C728.776,529.2993 722.7939,527.4514 719.3816,522.1992 C715.8385,528.9572 710.3485,527.6761 706.6762,522.3349 C702.6981,526.7189 698.964,526.0861 696.0008,521.17 C686.593,520.4906 680.649,514.2879 686.4464,504.7571 C681.6368,497.363 685.2412,489.9734 694.1347,489.4718 " fill="#F1F1F1" style="stroke:#181818;stroke-width:0.5;"/><text fill="#000000" font-family="sans-serif" font-size="14" lengthAdjust="spacing" textLength="86" x="701" y="509.292">LLM Provider</text></g><!--entity Email--><g id="elem_Email"><path d="M693.6267,678.0904 C697.6169,670.963 702.224,670.5333 706.7997,677.5449 C709.8235,672.5471 714.7254,671.3139 718.032,677.2545 C722.4047,670.6913 727.5871,669.9193 732.0802,677.1317 C734.489,668.9871 741.2846,669.3046 745.9759,674.8077 C751.3071,668.2136 755.4315,668.7487 759.0079,676.4117 C762.7075,671.3894 766.947,672.0284 770.2199,676.8955 C774.699,670.5733 779.3274,669.6272 783.9629,676.7354 C789.3891,670.5164 793.8543,672.29 797.7586,678.4337 C805.7538,678.6067 810.4152,685.2404 806.3515,692.6845 C811.4102,700.7387 806.5563,708.1637 797.6906,708.6769 C793.9332,716.0074 787.2577,715.6319 783.5287,708.6489 C779.7728,714.9192 774.9095,714.8506 770.2654,709.6785 C767.5676,714.9494 762.543,716.318 758.4531,711.2725 C755.0299,717.821 749.4205,717.7041 745.7316,711.5383 C741.3984,717.0915 735.1778,716.1128 731.9375,710.2211 C727.0921,716.4359 722.8518,715.8714 718.6976,709.4943 C714.8966,714.799 709.4871,715.5054 706.4698,708.7028 C702.8595,715.2528 696.5588,714.3572 693.6528,708.0032 C686.118,705.3808 685.1189,699.7079 689.6766,693.7193 C682.419,687.2177 685.2145,680.6315 693.6267,678.0904 " fill="#F1F1F1" style="stroke:#181818;stroke-width:0.5;"/><text fill="#000000" font-family="sans-serif" font-size="14" lengthAdjust="spacing" textLength="90" x="699" y="697.292">Email Service</text></g><g id="elem_GMN15"><path d="M656,140.7969 L656,241.5938 A0,0 0 0 0 656,241.5938 L832,241.5938 A0,0 0 0 0 832,241.5938 L832,150.7969 L822,140.7969 L748,140.7969 L744,105.3569 L740,140.7969 L656,140.7969 A0,0 0 0 0 656,140.7969 " fill="#FEFFDD" style="stroke:#181818;stroke-width:0.5;"/><path d="M822,140.7969 L822,150.7969 L832,150.7969 L822,140.7969 " fill="#FEFFDD" style="stroke:#181818;stroke-width:0.5;"/><text fill="#000000" font-family="sans-serif" font-size="13" lengthAdjust="spacing" textLength="155" x="662" y="157.8638">Stores AskMyData data:</text><text fill="#000000" font-family="sans-serif" font-size="13" lengthAdjust="spacing" textLength="44" x="662" y="172.9966">- users</text><text fill="#000000" font-family="sans-serif" font-size="13" lengthAdjust="spacing" textLength="60" x="662" y="188.1294">- projects</text><text fill="#000000" font-family="sans-serif" font-size="13" lengthAdjust="spacing" textLength="63" x="662" y="203.2622">- catalogs</text><text fill="#000000" font-family="sans-serif" font-size="13" lengthAdjust="spacing" textLength="98" x="662" y="218.395">- conversations</text><text fill="#000000" font-family="sans-serif" font-size="13" lengthAdjust="spacing" textLength="118" x="662" y="233.5278">- execution history</text></g><g id="elem_GMN18"><path d="M643.5,374.7969 L643.5,445.3281 A0,0 0 0 0 643.5,445.3281 L844.5,445.3281 A0,0 0 0 0 844.5,445.3281 L844.5,384.7969 L834.5,374.7969 L748,374.7969 L744,339.2969 L740,374.7969 L643.5,374.7969 A0,0 0 0 0 643.5,374.7969 " fill="#FEFFDD" style="stroke:#181818;stroke-width:0.5;"/><path d="M834.5,374.7969 L834.5,384.7969 L844.5,384.7969 L834.5,374.7969 " fill="#FEFFDD" style="stroke:#181818;stroke-width:0.5;"/><text fill="#000000" font-family="sans-serif" font-size="13" lengthAdjust="spacing" textLength="180" x="649.5" y="391.8638">Business database explored</text><text fill="#000000" font-family="sans-serif" font-size="13" lengthAdjust="spacing" textLength="107" x="649.5" y="406.9966">by the AI engine.</text><text fill="#000000" font-family="sans-serif" font-size="13" lengthAdjust="spacing" textLength="4" x="649.5" y="422.1294">&#160;</text><text fill="#000000" font-family="sans-serif" font-size="13" lengthAdjust="spacing" textLength="115" x="649.5" y="437.2622">Read-only access.</text></g><g id="elem_GMN21"><path d="M633,562.7969 L633,633.3281 A0,0 0 0 0 633,633.3281 L855,633.3281 A0,0 0 0 0 855,633.3281 L855,572.7969 L845,562.7969 L748,562.7969 L744,527.5569 L740,562.7969 L633,562.7969 A0,0 0 0 0 633,562.7969 " fill="#FEFFDD" style="stroke:#181818;stroke-width:0.5;"/><path d="M845,562.7969 L845,572.7969 L855,572.7969 L845,562.7969 " fill="#FEFFDD" style="stroke:#181818;stroke-width:0.5;"/><text fill="#000000" font-family="sans-serif" font-size="13" lengthAdjust="spacing" textLength="201" x="639" y="579.8638">Provider-independent interface.</text><text fill="#000000" font-family="sans-serif" font-size="13" lengthAdjust="spacing" textLength="4" x="639" y="594.9966">&#160;</text><text fill="#000000" font-family="sans-serif" font-size="13" lengthAdjust="spacing" textLength="150" x="639" y="610.1294">(OpenAI, Azure OpenAI,</text><text fill="#000000" font-family="sans-serif" font-size="13" lengthAdjust="spacing" textLength="131" x="639" y="625.2622">Anthropic, Ollama...)</text></g><!--link User to AskMyData--><g id="link_User_AskMyData"><path d="M67.76,388.1469 C106.03,395.3069 202.1423,413.2737 272.9223,426.5137 " fill="none" id="User-to-AskMyData" style="stroke:#181818;stroke-width:1.0;"/><polygon fill="#181818" points="278.82,427.6169,270.7089,422.0302,273.9052,426.6975,269.238,429.8939,278.82,427.6169" style="stroke:#181818;stroke-width:1.0;"/><text fill="#000000" font-family="sans-serif" font-size="13" lengthAdjust="spacing" textLength="82" x="147" y="367.3638">Authenticate</text><text fill="#000000" font-family="sans-serif" font-size="13" lengthAdjust="spacing" textLength="106" x="135" y="382.4966">Manage projects</text><text fill="#000000" font-family="sans-serif" font-size="13" lengthAdjust="spacing" textLength="80" x="148" y="397.6294">Explore data</text></g><!--link Administrator to AskMyData--><g id="link_Administrator_AskMyData"><path d="M97.38,488.0869 C137.21,480.8069 196.98,469.8569 249,460.2969 C258.66,458.5169 262.9195,457.7352 272.9495,455.8852 " fill="none" id="Administrator-to-AskMyData" style="stroke:#181818;stroke-width:1.0;"/><polygon fill="#181818" points="278.85,454.7969,269.2737,452.4957,273.9329,455.7038,270.7248,460.363,278.85,454.7969" style="stroke:#181818;stroke-width:1.0;"/><text fill="#000000" font-family="sans-serif" font-size="13" lengthAdjust="spacing" textLength="120" x="128" y="441.3638">Manage invitations</text><text fill="#000000" font-family="sans-serif" font-size="13" lengthAdjust="spacing" textLength="51" x="162.5" y="456.4966">(Admin)</text></g><!--link AskMyData to AppDB--><g id="link_AskMyData_AppDB"><path d="M371.53,414.3669 C411.49,354.7769 515.03,210.1969 633,123.2969 C642.01,116.6669 646.7298,113.441 656.9898,108.091 " fill="none" id="AskMyData-to-AppDB" style="stroke:#181818;stroke-width:1.0;"/><polygon fill="#181818" points="662.31,105.3169,652.4803,105.9313,657.8765,107.6287,656.1792,113.0249,662.31,105.3169" style="stroke:#181818;stroke-width:1.0;"/><text fill="#000000" font-family="sans-serif" font-size="13" lengthAdjust="spacing" textLength="141" x="459.5" y="148.3638">Store application data</text></g><!--link AskMyData to DataSource--><g id="link_AskMyData_DataSource"><path d="M427.17,416.2769 C493.96,393.4469 586.8726,361.6777 656.0826,338.0177 " fill="none" id="AskMyData-to-DataSource" style="stroke:#181818;stroke-width:1.0;"/><polygon fill="#181818" points="661.76,336.0769,651.95,335.2032,657.0288,337.6943,654.5378,342.7731,661.76,336.0769" style="stroke:#181818;stroke-width:1.0;"/><text fill="#000000" font-family="sans-serif" font-size="13" lengthAdjust="spacing" textLength="144" x="458" y="355.3638">Read-only SQL queries</text></g><!--link AskMyData to LLM--><g id="link_AskMyData_LLM"><path d="M427.17,453.1469 C502.22,465.2969 611.4671,482.9981 680.0371,494.0981 " fill="none" id="AskMyData-to-LLM" style="stroke:#181818;stroke-width:1.0;"/><polygon fill="#181818" points="685.96,495.0569,677.7148,489.6701,681.0243,494.2579,676.4365,497.5673,685.96,495.0569" style="stroke:#181818;stroke-width:1.0;"/><text fill="#000000" font-family="sans-serif" font-size="13" lengthAdjust="spacing" textLength="121" x="469.5" y="453.3638">Prompt / Response</text></g><!--link AskMyData to Email--><g id="link_AskMyData_Email"><path d="M383.37,468.0369 C432.15,511.3269 534.31,597.3669 633,651.2969 C648.92,659.9969 661.4303,665.5216 678.3303,671.7516 " fill="none" id="AskMyData-to-Email" style="stroke:#181818;stroke-width:1.0;"/><polygon fill="#181818" points="683.96,673.8269,676.8991,666.9608,679.2686,672.0974,674.132,674.467,683.96,673.8269" style="stroke:#181818;stroke-width:1.0;"/><text fill="#000000" font-family="sans-serif" font-size="13" lengthAdjust="spacing" textLength="102" x="479" y="515.3638">Send invitations</text><text fill="#000000" font-family="sans-serif" font-size="13" lengthAdjust="spacing" textLength="119" x="470.5" y="530.4966">(Production-ready)</text></g><!--SRC=[TPBDRjim3CVlUWgYfmIeitiE0zmbXm89sitOhHT5OXmjigH9T13lj8VO4-v9HYbkagRTnPP8_ldn4ycGHQZJVZqi94du-_iFD4CYxE2BTuH74iBYbe0yHDFk2BI9gCXu9qJQ6nTab1q4gVQonOO6pfRzqhKMXP2AV8Jl2UDuh7Ldd4aK9T-4E8V2tRc75pTPUzrR6M7jdRU6TjCxaEdIfH2QlnkPiYm4QvJC3S5Yj7A6Pv-eZTXyNOtQ41OFrxhbaJ0wQOi86jz7zP4kUqzE8PJrlOQxrMeDpz4VZCPOOjXmTYuxQImq60z6OV4MYn2P0LJLvolMSwXxsg6Zt3yNNql73254_uEnf1UtF0Rh8u8kCxz1zoxLA3RkOAZGOFsaIAOiFGSMMMR1aePoSda5S2pq9lf2W2NVKEhAEpi04uAVFKQ3wLQH0SqpeYuGV69D2jmEteQTK74RwFHDtwpLVLcoAdB5WKTmdX0sdiXtuBVZUvO9hXQZ330N5VHCE_7_bIKVUKHfVLkEtXtOVoh7TpoYwWk07VFrSH2vfLpnNTshVNZeat6O4foN2a_lfSLc07vOg1y1NSj1Co4kvAHIh9hzlqRUfzS5gupJ63YKruGXySvkfShv9azihH_leVxLyokEDr4xsaKVZBg79sjb9sUpsVHIwXy0]--></g></svg>