<?xml version="1.0" encoding="us-ascii" standalone="no"?><svg xmlns="http://www.w3.org/2000/svg" xmlns:xlink="http://www.w3.org/1999/xlink" contentStyleType="text/css" height="738px" preserveAspectRatio="none" style="width:956px;height:738px;background:#FFFFFF;" version="1.1" viewBox="0 0 956 738" width="956px" zoomAndPan="magnify"><defs/><g><text fill="#000000" font-family="sans-serif" font-size="14" font-weight="bold" lengthAdjust="spacing" textLength="235" x="353.5" y="22.9951">AskMyData &#8212; System Context</text><!--entity User--><g id="elem_User"><ellipse cx="51.5" cy="365.7969" fill="#F1F1F1" rx="8" ry="8" style="stroke:#181818;stroke-width:0.5;"/><path d="M51.5,373.7969 L51.5,400.7969 M38.5,381.7969 L64.5,381.7969 M51.5,400.7969 L38.5,415.7969 M51.5,400.7969 L64.5,415.7969 " fill="none" style="stroke:#181818;stroke-width:0.5;"/><text fill="#000000" font-family="sans-serif" font-size="14" lengthAdjust="spacing" textLength="32" x="35.5" y="430.292">User</text></g><!--entity Administrator--><g id="elem_Administrator"><ellipse cx="51.5" cy="476.7969" fill="#F1F1F1" rx="8" ry="8" style="stroke:#181818;stroke-width:0.5;"/><path d="M51.5,484.7969 L51.5,511.7969 M38.5,492.7969 L64.5,492.7969 M51.5,511.7969 L38.5,526.7969 M51.5,511.7969 L64.5,526.7969 " fill="none" style="stroke:#181818;stroke-width:0.5;"/><text fill="#000000" font-family="sans-serif" font-size="14" lengthAdjust="spacing" textLength="91" x="6" y="541.292">Administrator</text></g><!--entity AskMyData--><g id="elem_AskMyData"><rect fill="#F1F1F1" height="52.5938" rx="2.5" ry="2.5" style="stroke:#181818;stroke-width:0.5;" width="148" x="316" y="424.7969"/><text fill="#000000" font-family="sans-serif" font-size="14" lengthAdjust="spacing" textLength="76" x="326" y="447.792">AskMyData</text><text fill="#000000" font-family="sans-serif" font-size="14" lengthAdjust="spacing" textLength="128" x="326" y="464.0889">(Modular Monolith)</text></g><!--entity AppDB--><g id="elem_AppDB"><path d="M755.5,53.2969 C755.5,43.2969 838,43.2969 838,43.2969 C838,43.2969 920.5,43.2969 920.5,53.2969 L920.5,94.8906 C920.5,104.8906 838,104.8906 838,104.8906 C838,104.8906 755.5,104.8906 755.5,94.8906 L755.5,53.2969 " fill="#F1F1F1" style="stroke:#181818;stroke-width:0.5;"/><path d="M755.5,53.2969 C755.5,63.2969 838,63.2969 838,63.2969 C838,63.2969 920.5,63.2969 920.5,53.2969 " fill="none" style="stroke:#181818;stroke-width:0.5;"/><text fill="#000000" font-family="sans-serif" font-size="14" lengthAdjust="spacing" textLength="145" x="765.5" y="80.292">Application Database</text><text fill="#000000" font-family="sans-serif" font-size="14" lengthAdjust="spacing" textLength="91" x="765.5" y="96.5889">(PostgreSQL)</text></g><!--entity DataSource--><g id="elem_DataSource"><path d="M756,301.2969 C756,291.2969 838,291.2969 838,291.2969 C838,291.2969 920,291.2969 920,301.2969 L920,342.8906 C920,352.8906 838,352.8906 838,352.8906 C838,352.8906 756,352.8906 756,342.8906 L756,301.2969 " fill="#F1F1F1" style="stroke:#181818;stroke-width:0.5;"/><path d="M756,301.2969 C756,311.2969 838,311.2969 838,311.2969 C838,311.2969 920,311.2969 920,301.2969 " fill="none" style="stroke:#181818;stroke-width:0.5;"/><text fill="#000000" font-family="sans-serif" font-size="14" lengthAdjust="spacing" textLength="144" x="766" y="328.292">External Data Source</text><text fill="#000000" font-family="sans-serif" font-size="14" lengthAdjust="spacing" textLength="91" x="766" y="344.5889">(PostgreSQL)</text></g><!--entity LLM--><g id="elem_LLM"><path d="M788.1347,503.4718 C792.5535,496.9039 798.7832,497.6949 802.0156,504.6863 C804.5057,498.6781 809.0971,496.8799 813.7105,502.562 C818.337,495.835 822.3201,496.7952 826.976,502.5308 C830.5014,496.1492 835.8979,495.5467 840.0125,501.929 C842.8586,496.9407 846.9864,496.3785 850.584,501.1118 C854.7483,495.2896 860.3781,495.3015 863.3674,502.2847 C868.4459,496.522 873.1002,497.3352 875.9697,504.4471 C880.3457,496.7176 884.6108,496.4378 890.0455,503.4353 C901.1294,504.8992 904.1957,510.8711 897.642,520.2862 C902.6511,528.8211 898.0338,534.355 889.3387,535.322 C885.4684,542.2736 879.0891,541.3154 875.5611,534.9673 C872.7876,540.973 868.0035,541.2386 864.1875,536.0241 C860.0089,543.1078 854.7862,542.7888 850.8808,535.7664 C847.7673,540.9539 844.0841,540.8951 840.0629,536.8274 C835.564,542.7081 830.2844,543.2667 826.2807,536.2964 C822.776,543.2993 816.7939,541.4514 813.3816,536.1992 C809.8385,542.9572 804.3485,541.6761 800.6762,536.3349 C796.6981,540.7189 792.964,540.0861 790.0008,535.17 C780.593,534.4906 774.649,528.2879 780.4464,518.7571 C775.6368,511.363 779.2412,503.9734 788.1347,503.4718 " fill="#F1F1F1" style="stroke:#181818;stroke-width:0.5;"/><text fill="#000000" font-family="sans-serif" font-size="14" lengthAdjust="spacing" textLength="86" x="795" y="523.292">LLM Provider</text></g><!--entity Email--><g id="elem_Email"><path d="M787.6267,692.0904 C791.6169,684.963 796.224,684.5333 800.7997,691.5449 C803.8235,686.5471 808.7254,685.3139 812.032,691.2545 C816.4047,684.6913 821.5871,683.9193 826.0802,691.1317 C828.489,682.9871 835.2846,683.3046 839.9759,688.8077 C845.3071,682.2136 849.4315,682.7487 853.0079,690.4117 C856.7075,685.3894 860.947,686.0284 864.2199,690.8955 C868.699,684.5733 873.3274,683.6272 877.9629,690.7354 C883.3891,684.5164 887.8543,686.29 891.7586,692.4337 C899.7538,692.6067 904.4152,699.2404 900.3515,706.6845 C905.4102,714.7387 900.5563,722.1637 891.6906,722.6769 C887.9332,730.0074 881.2577,729.6319 877.5287,722.6489 C873.7728,728.9192 868.9095,728.8506 864.2654,723.6785 C861.5676,728.9494 856.543,730.318 852.4531,725.2725 C849.0299,731.821 843.4205,731.7041 839.7316,725.5383 C835.3984,731.0915 829.1778,730.1128 825.9375,724.2211 C821.0921,730.4359 816.8518,729.8714 812.6976,723.4943 C808.8966,728.799 803.4871,729.5054 800.4698,722.7028 C796.8595,729.2528 790.5588,728.3572 787.6528,722.0032 C780.118,719.3808 779.1189,713.7079 783.6766,707.7193 C776.419,701.2177 779.2145,694.6315 787.6267,692.0904 " fill="#F1F1F1" style="stroke:#181818;stroke-width:0.5;"/><text fill="#000000" font-family="sans-serif" font-size="14" lengthAdjust="spacing" textLength="90" x="793" y="711.292">Email Service</text></g><g id="elem_GMN15"><path d="M750,140.2969 L750,256.2266 A0,0 0 0 0 750,256.2266 L926,256.2266 A0,0 0 0 0 926,256.2266 L926,150.2969 L916,140.2969 L842,140.2969 L838,105.4369 L834,140.2969 L750,140.2969 A0,0 0 0 0 750,140.2969 " fill="#FEFFDD" style="stroke:#181818;stroke-width:0.5;"/><path d="M916,140.2969 L916,150.2969 L926,150.2969 L916,140.2969 " fill="#FEFFDD" style="stroke:#181818;stroke-width:0.5;"/><text fill="#000000" font-family="sans-serif" font-size="13" lengthAdjust="spacing" textLength="155" x="756" y="157.3638">Stores AskMyData data:</text><text fill="#000000" font-family="sans-serif" font-size="13" lengthAdjust="spacing" textLength="44" x="756" y="172.4966">- users</text><text fill="#000000" font-family="sans-serif" font-size="13" lengthAdjust="spacing" textLength="60" x="756" y="187.6294">- projects</text><text fill="#000000" font-family="sans-serif" font-size="13" lengthAdjust="spacing" textLength="63" x="756" y="202.7622">- catalogs</text><text fill="#000000" font-family="sans-serif" font-size="13" lengthAdjust="spacing" textLength="98" x="756" y="217.895">- conversations</text><text fill="#000000" font-family="sans-serif" font-size="13" lengthAdjust="spacing" textLength="96" x="756" y="233.0278">- question runs</text><text fill="#000000" font-family="sans-serif" font-size="13" lengthAdjust="spacing" textLength="115" x="756" y="248.1606">- execution traces</text></g><g id="elem_GMN18"><path d="M737.5,388.7969 L737.5,459.3281 A0,0 0 0 0 737.5,459.3281 L938.5,459.3281 A0,0 0 0 0 938.5,459.3281 L938.5,398.7969 L928.5,388.7969 L842,388.7969 L838,353.2969 L834,388.7969 L737.5,388.7969 A0,0 0 0 0 737.5,388.7969 " fill="#FEFFDD" style="stroke:#181818;stroke-width:0.5;"/><path d="M928.5,388.7969 L928.5,398.7969 L938.5,398.7969 L928.5,388.7969 " fill="#FEFFDD" style="stroke:#181818;stroke-width:0.5;"/><text fill="#000000" font-family="sans-serif" font-size="13" lengthAdjust="spacing" textLength="180" x="743.5" y="405.8638">Business database explored</text><text fill="#000000" font-family="sans-serif" font-size="13" lengthAdjust="spacing" textLength="107" x="743.5" y="420.9966">by the AI engine.</text><text fill="#000000" font-family="sans-serif" font-size="13" lengthAdjust="spacing" textLength="4" x="743.5" y="436.1294">&#160;</text><text fill="#000000" font-family="sans-serif" font-size="13" lengthAdjust="spacing" textLength="115" x="743.5" y="451.2622">Read-only access.</text></g><g id="elem_GMN21"><path d="M727,576.7969 L727,647.3281 A0,0 0 0 0 727,647.3281 L949,647.3281 A0,0 0 0 0 949,647.3281 L949,586.7969 L939,576.7969 L842,576.7969 L838,541.5569 L834,576.7969 L727,576.7969 A0,0 0 0 0 727,576.7969 " fill="#FEFFDD" style="stroke:#181818;stroke-width:0.5;"/><path d="M939,576.7969 L939,586.7969 L949,586.7969 L939,576.7969 " fill="#FEFFDD" style="stroke:#181818;stroke-width:0.5;"/><text fill="#000000" font-family="sans-serif" font-size="13" lengthAdjust="spacing" textLength="201" x="733" y="593.8638">Provider-independent interface.</text><text fill="#000000" font-family="sans-serif" font-size="13" lengthAdjust="spacing" textLength="4" x="733" y="608.9966">&#160;</text><text fill="#000000" font-family="sans-serif" font-size="13" lengthAdjust="spacing" textLength="150" x="733" y="624.1294">(OpenAI, Azure OpenAI,</text><text fill="#000000" font-family="sans-serif" font-size="13" lengthAdjust="spacing" textLength="131" x="733" y="639.2622">Anthropic, Ollama...)</text></g><!--link User to AskMyData--><g id="link_User_AskMyData"><path d="M67.83,397.8469 C110.9,405.0169 229.1914,424.7021 309.9114,438.1321 " fill="none" id="User-to-AskMyData" style="stroke:#181818;stroke-width:1.0;"/><polygon fill="#181818" points="315.83,439.1169,307.6085,433.694,310.8978,438.2963,306.2956,441.5855,315.83,439.1169" style="stroke:#181818;stroke-width:1.0;"/><text fill="#000000" font-family="sans-serif" font-size="13" lengthAdjust="spacing" textLength="82" x="165.5" y="375.3638">Authenticate</text><text fill="#000000" font-family="sans-serif" font-size="13" lengthAdjust="spacing" textLength="106" x="153.5" y="390.4966">Manage projects</text><text fill="#000000" font-family="sans-serif" font-size="13" lengthAdjust="spacing" textLength="80" x="166.5" y="405.6294">Explore data</text></g><!--link Administrator to AskMyData--><g id="link_Administrator_AskMyData"><path d="M97.33,499.7869 C144.38,492.8569 220.48,481.3869 286,470.2969 C295.68,468.6569 299.9552,467.9314 309.9952,466.1214 " fill="none" id="Administrator-to-AskMyData" style="stroke:#181818;stroke-width:1.0;"/><polygon fill="#181818" points="315.9,465.0569,306.3331,462.7171,310.9793,465.944,307.7525,470.5902,315.9,465.0569" style="stroke:#181818;stroke-width:1.0;"/><text fill="#000000" font-family="sans-serif" font-size="13" lengthAdjust="spacing" textLength="157" x="128" y="451.3638">Manage platform access</text><text fill="#000000" font-family="sans-serif" font-size="13" lengthAdjust="spacing" textLength="119" x="147" y="466.4966">(Production-ready)</text></g><!--link AskMyData to AppDB--><g id="link_AskMyData_AppDB"><path d="M410.45,424.6369 C430.28,398.1269 462.51,356.8369 494,324.2969 C589.31,225.8069 611.09,195.4269 727,122.2969 C736.6,116.2369 741.7052,113.2129 752.2852,108.0629 " fill="none" id="AskMyData-to-AppDB" style="stroke:#181818;stroke-width:1.0;"/><polygon fill="#181818" points="757.68,105.4369,747.8371,105.7794,753.1843,107.6252,751.3385,112.9724,757.68,105.4369" style="stroke:#181818;stroke-width:1.0;"/><text fill="#000000" font-family="sans-serif" font-size="13" lengthAdjust="spacing" textLength="141" x="525" y="139.3638">Store application data</text></g><!--link AskMyData to DataSource--><g id="link_AskMyData_DataSource"><path d="M464.15,430.1369 C544.34,406.9469 666.8864,371.5044 750.1164,347.4244 " fill="none" id="AskMyData-to-DataSource" style="stroke:#181818;stroke-width:1.0;"/><polygon fill="#181818" points="755.88,345.7569,746.1229,344.4157,751.077,347.1465,748.3462,352.1006,755.88,345.7569" style="stroke:#181818;stroke-width:1.0;"/><text fill="#000000" font-family="sans-serif" font-size="13" lengthAdjust="spacing" textLength="117" x="537" y="345.3638">Schema discovery</text><text fill="#000000" font-family="sans-serif" font-size="13" lengthAdjust="spacing" textLength="144" x="523.5" y="360.4966">Read-only SQL queries</text></g><!--link AskMyData to LLM--><g id="link_AskMyData_LLM"><path d="M464.15,462.2869 C552.5,475.5569 693.3165,496.716 773.8365,508.806 " fill="none" id="AskMyData-to-LLM" style="stroke:#181818;stroke-width:1.0;"/><polygon fill="#181818" points="779.77,509.6969,771.4637,504.4049,774.8254,508.9545,770.2758,512.3162,779.77,509.6969" style="stroke:#181818;stroke-width:1.0;"/><text fill="#000000" font-family="sans-serif" font-size="13" lengthAdjust="spacing" textLength="130" x="530.5" y="448.3638">Question processing</text><text fill="#000000" font-family="sans-serif" font-size="13" lengthAdjust="spacing" textLength="201" x="495" y="463.4966">Semantic metadata generation</text></g><!--link AskMyData to Email--><g id="link_AskMyData_Email"><path d="M420.5,478.1169 C440.5,495.6669 467.94,518.5469 494,536.2969 C591.84,602.9169 619.47,615.8269 727,665.2969 C743.2,672.7469 755.5554,677.8079 772.1954,683.9879 " fill="none" id="AskMyData-to-Email" style="stroke:#181818;stroke-width:1.0;"/><polygon fill="#181818" points="777.82,686.0769,770.7757,679.1937,773.1328,684.3361,767.9904,686.6932,777.82,686.0769" style="stroke:#181818;stroke-width:1.0;"/><text fill="#000000" font-family="sans-serif" font-size="13" lengthAdjust="spacing" textLength="102" x="544.5" y="517.3638">Send invitations</text><text fill="#000000" font-family="sans-serif" font-size="13" lengthAdjust="spacing" textLength="119" x="536" y="532.4966">(Production-ready)</text></g><!--SRC=[TLDBZjim3Dth54HM4s2I0sHHmDDaCK22cQdHNJQCp3XgPCaZqK7SLG_H4_OafUHyEvrD8b7au-FZCnks14NSh_evCiAVNx-Xx2DJ0r-zOpgoKfQs3EmXc7h7K9b0certIiMzSIq6RA15lSUQIku5BRsZgoqfXPfzWE-HmkbOL8rn9d90kIbrIONHXSFQFQnyrLaCiFBEMyExyGWmNbagLSdl1cCgQrjhD2P2C3z51U7LHwu3bM_BKstRpfzkwnP7fk3GvY8eVHVq_-hIw_2ebBQ-gs2qNAxWDVY3gIZa70bS7XSD6WibXOFHb5zpHAca0KmcNswqda7HyOuS9_xIV8LED8Gs-1yYIroxnR6rFX1KUUOxwJv0dOijyjQ71b1hYZ5D54JClB198ApwiI1TwZ9AaaOGIawzy4RFKz-xxAiWgKJlg46nHDJ-GA5Vks_IOkATxK4aXFUEWg7uBqPIS0Pl7SNSHWPEN8shrwuKl2G8DCIO-aDDZW8EXhk76RGM5kGgCEvWEATzChJpJB3npBu1lpqP8izyuwmyyanDe9DrHVa_BqEE8WfQN-UZTp9k7Dh9_VqyIkZodOwaknoGRSbiAZ5C13xGkF7NKoSIY0vmCIaD-w_KfWSn2XJFGAwMfAbILw67JKy_xv7yUJRinBYAMaaLsubcyWriXQ3WFRn8j7X-XE9d9pOutLJXU1TyQ_GZl5YB3Kwdq_6rrLy0]--></g></svg>